<mxfile host="drawio-plugin" modified="2021-04-26T22:04:38.528Z" agent="5.0 (Windows NT 6.2; Win64; x64) AppleWebKit/537.36 (KHTML, like Gecko) Chrome/87.0.4280.141 Safari/537.36" etag="JZHfPUMftWGLh8Top5wM" version="13.7.9" type="embed"><diagram id="iJB8e4C8LSmCXrwoH1_6" name="Page-1"><mxGraphModel dx="1041" dy="691" grid="1" gridSize="10" guides="1" tooltips="1" connect="1" arrows="1" fold="1" page="1" pageScale="1" pageWidth="1169" pageHeight="827" math="0" shadow="0"><root><mxCell id="0"/><mxCell id="1" parent="0"/><mxCell id="HlrDbo4SVCVQP59pXL_A-2" value="&lt;b&gt;Client 1&lt;/b&gt;" style="shape=umlFrame;whiteSpace=wrap;html=1;width=160;height=40;" parent="1" vertex="1"><mxGeometry x="40" y="40" width="160" height="440" as="geometry"/></mxCell><mxCell id="2" value="" style="rounded=0;whiteSpace=wrap;html=1;" vertex="1" parent="1"><mxGeometry x="40" y="120" width="160" height="280" as="geometry"/></mxCell><mxCell id="HlrDbo4SVCVQP59pXL_A-3" value="&lt;b&gt;Server&lt;/b&gt;" style="shape=umlFrame;whiteSpace=wrap;html=1;width=180;height=40;" parent="1" vertex="1"><mxGeometry x="310" y="40" width="180" height="440" as="geometry"/></mxCell><mxCell id="HlrDbo4SVCVQP59pXL_A-4" value="&lt;b&gt;Client 2&lt;/b&gt;" style="shape=umlFrame;whiteSpace=wrap;html=1;width=160;height=40;" parent="1" vertex="1"><mxGeometry x="600" y="40" width="160" height="440" as="geometry"/></mxCell><mxCell id="HlrDbo4SVCVQP59pXL_A-6" value="&lt;b&gt;Nadawca&lt;/b&gt;" style="html=1;" parent="1" vertex="1"><mxGeometry x="60" y="260" width="120" height="40" as="geometry"/></mxCell><mxCell id="HlrDbo4SVCVQP59pXL_A-7" value="&lt;span style=&quot;font-family: &amp;#34;arial&amp;#34;&quot;&gt;&lt;font style=&quot;font-size: 12px&quot;&gt;&lt;b&gt;Słuchacz&lt;/b&gt;&lt;/font&gt;&lt;/span&gt;" style="html=1;" parent="1" vertex="1"><mxGeometry x="60" y="140" width="120" height="40" as="geometry"/></mxCell><mxCell id="3" style="edgeStyle=orthogonalEdgeStyle;rounded=0;orthogonalLoop=1;jettySize=auto;html=1;exitX=0.5;exitY=1;exitDx=0;exitDy=0;" edge="1" parent="1" source="HlrDbo4SVCVQP59pXL_A-7" target="HlrDbo4SVCVQP59pXL_A-7"><mxGeometry relative="1" as="geometry"/></mxCell><mxCell id="4" value="" style="rounded=0;whiteSpace=wrap;html=1;" vertex="1" parent="1"><mxGeometry x="310" y="120" width="180" height="320" as="geometry"/></mxCell><mxCell id="5" value="&lt;b&gt;Komunikacja&lt;/b&gt;" style="html=1;" vertex="1" parent="1"><mxGeometry x="60" y="320" width="120" height="40" as="geometry"/></mxCell><mxCell id="6" value="&lt;span style=&quot;font-family: &amp;#34;arial&amp;#34;&quot;&gt;&lt;font style=&quot;font-size: 12px&quot;&gt;&lt;b&gt;Nadawca 1&lt;/b&gt;&lt;/font&gt;&lt;/span&gt;" style="html=1;" vertex="1" parent="1"><mxGeometry x="330" y="140" width="140" height="40" as="geometry"/></mxCell><mxCell id="7" value="" style="endArrow=classic;html=1;exitX=0;exitY=0.5;exitDx=0;exitDy=0;entryX=1;entryY=0.5;entryDx=0;entryDy=0;" edge="1" parent="1" source="6" target="HlrDbo4SVCVQP59pXL_A-7"><mxGeometry width="50" height="50" relative="1" as="geometry"><mxPoint x="250" y="250" as="sourcePoint"/><mxPoint x="300" y="200" as="targetPoint"/></mxGeometry></mxCell><mxCell id="8" value="" style="rounded=0;whiteSpace=wrap;html=1;" vertex="1" parent="1"><mxGeometry x="600" y="180" width="160" height="220" as="geometry"/></mxCell><mxCell id="9" value="&lt;b&gt;Nadawca&lt;/b&gt;" style="html=1;" vertex="1" parent="1"><mxGeometry x="620" y="260" width="120" height="40" as="geometry"/></mxCell><mxCell id="10" value="&lt;span style=&quot;font-family: &amp;#34;arial&amp;#34;&quot;&gt;&lt;font style=&quot;font-size: 12px&quot;&gt;&lt;b&gt;Słuchacz&lt;/b&gt;&lt;/font&gt;&lt;/span&gt;" style="html=1;" vertex="1" parent="1"><mxGeometry x="620" y="200" width="120" height="40" as="geometry"/></mxCell><mxCell id="11" value="&lt;b&gt;Komunikacja&lt;/b&gt;" style="html=1;" vertex="1" parent="1"><mxGeometry x="620" y="320" width="120" height="40" as="geometry"/></mxCell><mxCell id="12" value="" style="endArrow=classic;html=1;entryX=0;entryY=0.5;entryDx=0;entryDy=0;exitX=1;exitY=0.5;exitDx=0;exitDy=0;" edge="1" parent="1" source="13" target="10"><mxGeometry width="50" height="50" relative="1" as="geometry"><mxPoint x="490" y="510" as="sourcePoint"/><mxPoint x="330" y="510" as="targetPoint"/></mxGeometry></mxCell><mxCell id="13" value="&lt;span style=&quot;font-family: &amp;#34;arial&amp;#34;&quot;&gt;&lt;font style=&quot;font-size: 12px&quot;&gt;&lt;b&gt;Nadawca 2&lt;/b&gt;&lt;/font&gt;&lt;/span&gt;" style="html=1;" vertex="1" parent="1"><mxGeometry x="330" y="200" width="140" height="40" as="geometry"/></mxCell><mxCell id="14" value="&lt;b&gt;Nadawca&lt;/b&gt;&lt;br&gt;&lt;b&gt;priorytetowy&lt;/b&gt;" style="html=1;" vertex="1" parent="1"><mxGeometry x="330" y="380" width="140" height="40" as="geometry"/></mxCell><mxCell id="15" value="&lt;b&gt;Komunikacja&lt;/b&gt;" style="html=1;" vertex="1" parent="1"><mxGeometry x="330" y="320" width="140" height="40" as="geometry"/></mxCell><mxCell id="16" value="" style="endArrow=classic;startArrow=classic;html=1;entryX=0;entryY=0.5;entryDx=0;entryDy=0;exitX=1;exitY=0.5;exitDx=0;exitDy=0;" edge="1" parent="1" source="5" target="15"><mxGeometry width="50" height="50" relative="1" as="geometry"><mxPoint x="120" y="470" as="sourcePoint"/><mxPoint x="170" y="420" as="targetPoint"/></mxGeometry></mxCell><mxCell id="17" value="" style="endArrow=classic;startArrow=classic;html=1;entryX=0;entryY=0.5;entryDx=0;entryDy=0;exitX=1;exitY=0.5;exitDx=0;exitDy=0;" edge="1" parent="1" source="15" target="11"><mxGeometry width="50" height="50" relative="1" as="geometry"><mxPoint x="510" y="480" as="sourcePoint"/><mxPoint x="670" y="540" as="targetPoint"/></mxGeometry></mxCell><mxCell id="18" value="&lt;span style=&quot;font-family: &amp;#34;arial&amp;#34;&quot;&gt;&lt;font&gt;&lt;b style=&quot;font-size: 12px&quot;&gt;Słuchacz&lt;/b&gt;&lt;br&gt;&lt;font style=&quot;font-size: 10px&quot;&gt;(tylko 1 połączenie aktywne)&lt;/font&gt;&lt;br&gt;&lt;/font&gt;&lt;/span&gt;" style="html=1;" vertex="1" parent="1"><mxGeometry x="330" y="260" width="140" height="40" as="geometry"/></mxCell><mxCell id="19" value="" style="endArrow=classic;html=1;exitX=0;exitY=0.5;exitDx=0;exitDy=0;entryX=1;entryY=0.5;entryDx=0;entryDy=0;" edge="1" parent="1" source="9" target="18"><mxGeometry width="50" height="50" relative="1" as="geometry"><mxPoint x="530" y="320" as="sourcePoint"/><mxPoint x="580" y="270" as="targetPoint"/></mxGeometry></mxCell><mxCell id="21" value="" style="endArrow=classic;html=1;exitX=1;exitY=0.5;exitDx=0;exitDy=0;entryX=0;entryY=0.5;entryDx=0;entryDy=0;" edge="1" parent="1" source="HlrDbo4SVCVQP59pXL_A-6" target="18"><mxGeometry width="50" height="50" relative="1" as="geometry"><mxPoint x="250" y="330" as="sourcePoint"/><mxPoint x="90" y="330" as="targetPoint"/></mxGeometry></mxCell></root></mxGraphModel></diagram></mxfile>